<svg width="700" height="426" viewBox="0 0 700 426" fill="none" xmlns="http://www.w3.org/2000/svg">
<path d="M316.5 32.9C315.4 33.4 313.6 34.8 312.5 36C310.7 38 310.5 39.6 310.5 52.5C310.5 61.1 311 67.6 311.6 69.1C312.3 70.4 313.6 73.7 314.6 76.5C317.9 86.1 329.9 98.6 340.3 103.5C344.6 105.5 346.4 108.2 345.5 111.1C343.5 117.3 349.4 133.9 357.7 145.7C359 147.4 360 149.3 360 149.7C360 150.2 358.4 152.2 356.4 154.1C354.4 155.9 350.6 160.4 347.9 164C345.2 167.6 342.6 171.1 342 171.7C340.7 173.3 331.9 173.4 311 172C302.5 171.4 276.8 170.5 254 169.9C231.2 169.4 196.6 168.5 177.2 168C140.7 167 139.2 167.1 136.3 170.9C133.5 174.5 135.5 192.9 139.5 200.6C140.3 202.2 141 203.9 141 204.3C141 205.9 148.9 216.6 152.7 220.1C154.8 222.1 158.4 225 160.8 226.4C165.6 229.4 165.8 231.1 161.4 232.4C159.8 232.8 157.7 233.6 156.8 234.1C155.8 234.6 154.4 235 153.6 235C152 235 142.2 237.8 140 239C139.1 239.4 136.9 240.1 135 240.5C133.1 240.9 130.9 241.6 130 242.1C129.2 242.5 125.8 243.6 122.5 244.5C119.2 245.5 115.2 246.7 113.5 247.2C111.9 247.8 108.9 248.6 107 249C105.1 249.5 98.8002 251.5 93.0002 253.4C87.2002 255.4 81.6002 257 80.5002 257C79.4002 257 77.6002 257.7 76.6002 258.5C75.5002 259.3 73.8002 260 72.9002 260C71.9002 260 70.2002 261.5 69.1002 263.4C66.2002 268.1 67.3002 273.6 71.7002 276.6C74.5002 278.5 75.5002 278.6 80.2002 277.8C83.1002 277.3 86.2002 276.4 87.2002 275.9C88.2002 275.4 90.9002 274.6 93.2002 274.1C97.1002 273.3 100.7 272.2 106.5 269.9C107.6 269.5 111.9 268.2 116 267C120.1 265.7 124.4 264.4 125.5 264C126.6 263.6 130 262.5 133 261.6C146.4 257.6 155.9 254.7 161 253.1C164 252.1 169 250.5 172 249.5C175 248.6 178.5 247.4 179.7 246.8C182.5 245.4 185 246.4 185 248.8C185 249.9 185.7 251.3 186.5 252C187.3 252.7 188 254 188 255C188 256.7 196.3 266.9 200.7 270.5C204.5 273.6 202.9 275.4 193.7 277.9C189.2 279.2 183.9 280.8 182 281.5C175 284 162 288 160.6 288C159.7 288 157.6 288.6 155.8 289.4C154 290.2 149.1 291.9 145 293.1C137 295.5 134 297.3 134 300C134 300.9 133.5 302.1 132.9 302.7C131.4 304.2 135.4 311.8 138.5 313.2C141.2 314.4 146.8 313.5 156 310.3C166.1 306.7 171.8 305 173.3 305C174.1 305 176.1 304.3 177.6 303.5C179.2 302.7 181.5 302 182.7 302C183.9 302 186.1 301.4 187.7 300.6C189.2 299.8 193.2 298.4 196.5 297.5C199.8 296.5 205.7 294.7 209.7 293.4C213.6 292.1 217.5 291 218.4 291C219.3 291 221.2 290.3 222.5 289.4C225.8 287.3 228.7 288.4 229.5 292.1C229.9 293.8 230.8 296.3 231.6 297.8C232.4 299.3 233 301 233 301.7C233 303.5 237 309.7 241.5 314.7C251 325.5 262.8 331.8 277.5 333.9C281.9 334.5 303.9 335.4 326.5 335.9L367.5 336.8L370.5 340.5C380.4 353 389.1 360.5 399.5 365.8C409 370.7 412.1 371.8 419 373C424 373.9 477.2 375.7 516.5 376.3C522.4 376.4 534.4 374.6 536.9 373.3C538.4 372.6 540.4 372 541.5 372C542.6 372 544.4 371.3 545.4 370.5C546.5 369.7 548 369 548.7 369C550.5 369 556 365.3 577.9 349.5C588.5 341.8 598.2 334.8 599.4 334C600.5 333.2 606.6 328.8 612.8 324.3C619 319.7 624.4 316 624.8 316C625.9 316 640.1 301.2 643.1 297C649.5 288.1 655.5 274.8 656.6 267.3C656.9 264.7 657.7 262 658.2 261.3C659.5 259.7 658.2 242.1 656.3 235C655.5 232 654.4 227.9 654 226C653.6 224.1 652.6 220.9 652 219C648.9 210.4 648 207.3 648 205.8C648 204.9 647.3 202.9 646.5 201.4C645.7 199.8 645 197.3 645 195.8C645 194.3 644.6 192.8 644 192.5C643.5 192.2 643 191.2 643 190.3C643 189.5 642.4 187.4 641.6 185.7C640.1 182.4 638.2 175.6 637.3 170.5C637 168.8 636.1 166.6 635.4 165.5C634.6 164.4 634 162.7 634 161.6C634 160.5 633.4 157.8 632.6 155.5C631.8 153.3 630.4 148.8 629.4 145.5C628.5 142.2 627.3 138.8 626.9 138C626.5 137.2 625.2 134.5 624 132C619.6 122.8 617.4 119.7 610 112.1C599.1 100.9 589.2 95 574.3 90.9C570 89.7 565.7 88.4 564.8 87.9C563.8 87.4 561.9 87 560.5 87C558.3 87 550.6 85.3 538 82C536.1 81.5 532.5 80.7 530 80.1C522.5 78.4 494.7 72 491 71C486.5 69.9 476.7 67.7 466.5 65.5C462.1 64.5 457.4 63.4 456 62.9C454.6 62.5 451.7 61.8 449.5 61.4C447.3 61 445.1 60.4 444.5 60C444 59.6 441.1 59 438.2 58.7C435.3 58.3 431.4 57.6 429.7 57.1C427.9 56.5 420.2 54.7 412.5 53C404.8 51.3 396.2 49.3 393.4 48.5C390.6 47.7 387.3 47 386.1 47C385 47 383.2 46.6 382.2 46.1C380.5 45.2 358.4 40.2 352.5 39.4C350.9 39.1 347.3 38.3 344.5 37.5C331.1 33.6 319.4 31.7 316.5 32.9ZM339.5 56.5C341.7 57.3 344.4 58 345.4 58C346.5 58 350.3 58.7 353.9 59.6C357.5 60.4 363.4 61.8 367 62.6C370.6 63.4 375 64.6 376.7 65.1C378.5 65.7 382.1 66.5 384.7 67C387.4 67.5 392.4 68.6 396 69.5C403.9 71.5 413.4 73.7 417.5 74.5C419.2 74.8 424.1 75.9 428.5 77C440.7 79.8 454.1 82.8 458.3 83.5C465.4 84.7 462.1 87.7 451.8 89.4C447.6 90.2 432.5 97.6 427.3 101.6C422.8 105 418.5 104.6 402.4 99.6C399.5 98.7 395.8 98 394.1 98C392.3 98 389.9 97.5 388.7 96.8C387.5 96.2 384.5 95.3 382 94.9C361.7 91.5 348.9 87.2 342.2 81.5C335 75.5 327.2 59.8 329.5 56C330.4 54.6 334.8 54.8 339.5 56.5ZM527 107.1C543.8 107.7 559.3 108.5 561.4 108.8C568.6 110.1 568.6 110.1 547.5 125.8L538.5 132.5L489.5 132.2C435.8 131.9 423.7 131.5 424.3 129.7C424.7 128.2 438 117.8 444 114.2C446.5 112.7 452.1 110.3 456.5 108.8C463.9 106.3 465.7 106 480.5 106C489.3 106 510.2 106.5 527 107.1ZM378 114.5C381.6 115.4 387 116.5 390.1 116.9C395.8 117.8 400 119.4 400 120.9C400 121.4 396.7 124.2 392.8 127.1C381.5 135.4 379 137 377.5 137C376 137 370 129.9 368.3 126C367.7 124.6 366.7 121.6 366 119.2C364.7 114.1 366 111.5 369.4 112.4C370.6 112.6 374.4 113.6 378 114.5ZM596 125.6C602 131.2 607.6 141.9 611.8 155.5C616.2 170 630.9 217.7 632.5 223C638.6 242.5 639.7 249.4 638.1 259.5C636.6 268.4 634.3 274 628.5 283C622.3 292.6 617.4 296.7 586.6 319C547.6 347.2 544.1 349.5 542.3 348.4C541.5 347.9 537.9 338 534.4 326.5C530.8 314.9 527 302.6 525.9 299C522.8 289.1 503.5 226.8 494.7 197.8C492.7 191.3 492.7 191 494.5 189C497.9 185.2 534.4 159.6 536.4 159.6C538.6 159.5 538.7 159.7 549 193C551.1 199.9 554.9 212 557.3 220C559.8 228 562.5 236.9 563.4 239.8C564.2 242.7 565.2 245.5 565.5 246C565.8 246.5 568.6 244.9 571.6 242.5C574.6 240 578.2 237.3 579.6 236.4C583.2 234 583.9 237 570.7 194.5C559.3 157.7 555.9 145.8 556.4 144.4C556.7 143.7 560.4 140.6 564.7 137.6C569 134.5 575.9 129.6 580 126.6C584.1 123.6 588.3 121.1 589.3 121.1C590.3 121 593.3 123.1 596 125.6ZM461.7 152.8C485.4 153.2 505.2 153.9 505.6 154.3C506.1 154.7 505.1 156.2 503.5 157.5C500.6 159.9 485.5 170.8 480.2 174.2C477.9 175.7 475 176 459.5 175.9C449.6 175.9 425.3 175.1 405.5 174.2C373.2 172.7 369.5 172.3 369.2 170.8C369 169.6 371.7 166.9 377.4 162.3C391.3 151.3 391.8 151.1 406.2 151.7C413 151.9 437.9 152.5 461.7 152.8ZM221 188.5C249.3 189.3 284.7 190.5 299.5 191.1C314.4 191.7 342 192.6 361 193.1C395.1 193.9 401.1 194.5 411 198.1C420 201.3 431.1 209.7 437.3 217.8C447.4 231.1 451.2 244.1 450 261.5C449.4 269.9 448.7 272.9 445.6 280C439 295.2 427.5 306.7 412.9 313C400.8 318.1 396.8 318.4 352.6 317.1C289.4 315.3 283.9 315.1 276.3 313.5C265.3 311.4 256.1 304.1 250.6 293.2C246.6 285.4 246.8 285.3 271 286.1C323.3 287.9 382.2 289.2 384.5 288.6C389.2 287.4 391.6 278.7 388.4 274.2C385.4 269.8 382.8 269.4 358 269.1C345.1 269 323.5 268.4 310 267.8C296.5 267.2 273.1 266.5 258 266.1L230.5 265.5L223.6 262.1C219.8 260.2 215.2 257.4 213.4 255.7C208.2 251.2 203.7 244 203.6 240L203.5 236.5L213 236.7C218.2 236.8 239.8 237.4 261 238.1C282.2 238.8 308.2 239.5 318.8 239.7L338.1 240.1L341 237.1C344.2 233.9 344.9 230 342.9 225.7C340.4 220.2 343.3 220.5 256.5 218C185.1 215.9 183.4 215.8 176.7 212.6C166.8 207.8 154.5 193.3 156.4 188.5C157.1 186.6 157.4 186.6 221 188.5ZM471.7 196.6C472.9 196.8 474.2 198 474.5 199.3C474.9 200.5 476.9 206.9 479 213.5C481.1 220.1 483.8 228.9 485 233C486.2 237.1 489.3 247 491.7 255C496.9 271.8 506.6 303.4 508.5 310C509.2 312.5 512.3 322.3 515.4 331.9C522.1 352.9 522.5 354.6 520.9 355.5C519.6 356.4 465.7 356.3 444.5 355.4C436.8 355.1 427.1 354.2 423 353.3C409.6 350.6 396 342.2 399 338.5C399.7 337.7 401.1 337 402.1 337C403.1 337 407.6 335.8 412.2 334.4C439.5 325.8 457.9 307.4 467.2 279.5C470.1 270.6 470.8 248.9 468.5 238.4C465.8 225.9 458.6 211.6 449.8 201.2C448.3 199.4 447 197.5 447 197C447 195.5 464.8 195.2 471.7 196.6Z" fill="black"/>
<path d="M278 85C275 86 271.7 86.9 270.7 86.9C269.8 87 268.2 87.4 267.2 87.9C265.4 88.8 252.5 93 237.7 97.6C227.6 100.7 224 103.9 224 109.5C224 115.1 232.8 120.9 237.1 118.1C238.1 117.5 239.8 117 240.9 117C241.9 117 244.1 116.3 245.6 115.5C247.2 114.7 249.2 114 250 114C250.8 114 254.7 112.8 258.5 111.5C262.4 110.1 266.5 109 267.7 109C268.9 109 271.1 108.4 272.7 107.6C276.2 105.9 281.7 103.9 285 103.3C293.1 101.7 297 97.8 297 91.5C297 83.3 290 80.9 278 85Z" fill="black"/>
<path d="M190.6 112.1C186.2 113.7 181.6 115 180.4 115C179.1 115 177.8 115.4 177.5 116C177.2 116.5 175.6 117 174.1 117C172.6 117 171 117.4 170.5 117.9C169.9 118.5 167.7 119.3 165.5 119.9C161.3 120.9 152.9 123.6 149.5 125C148.4 125.4 144.8 126.6 141.5 127.5C138.2 128.4 133.7 129.8 131.5 130.6C129.3 131.4 125 132.6 122 133.4C119 134.2 113.4 136 109.5 137.4C105.7 138.8 101.8 140 100.9 140C100 140 97.9 140.7 96.4 141.5C94.8 142.3 92.7 143 91.8 143C90.9 143 89.1 143.4 87.8 143.9C86.5 144.4 78.8 146.9 70.5 149.5C62.3 152 54.7 154.5 53.8 155C52.8 155.6 51.2 156 50.1 156C49 156 46.8 157.2 45.1 158.6C42.6 160.6 42 162 42 165C42 168.1 42.7 169.4 45.5 171.9C47.5 173.6 49.9 175 51 175C53.7 175 61.9 173 65.7 171.4C67.4 170.6 69.4 170 70.2 170C70.9 170 74.7 168.8 78.5 167.5C82.4 166.1 86.5 165 87.7 165C88.9 165 90.1 164.6 90.5 164.1C90.8 163.6 92.5 162.9 94.3 162.5C98.1 161.7 106.9 159 109 158C109.9 157.6 112 156.9 113.9 156.5C115.7 156.1 118.3 155.2 119.8 154.4C121.3 153.6 123.3 153 124.4 153C126.4 153 140.5 148.6 145.7 146.4C147.4 145.6 149.8 145 150.9 145C152.1 145 153.8 144.6 154.8 144.1C155.7 143.5 159.2 142.4 162.5 141.4C165.8 140.5 175.9 137.3 185 134.4C194 131.4 202.2 129 203.1 129C204 129 206.2 127.7 207.8 126.2C210.5 123.6 210.8 122.9 210.3 118.9C209.7 113.6 205.5 109 201.2 109.1C199.7 109.1 194.9 110.5 190.6 112.1Z" fill="black"/>
<path d="M319.5 127.4C317.9 128.2 313.8 129.5 310.5 130.5C307.2 131.5 303.2 132.7 301.5 133.2C287.6 137.2 277.1 141.2 274.8 143.3C271.3 146.4 271.2 150.5 274.3 155.1C276.5 158.3 276.9 158.5 282 158.4C287.2 158.3 303 154.3 309.5 151.4C311.2 150.7 316.8 148.9 322 147.4C334 144 337.5 141 336.7 134.6C335.7 127 327.9 123.8 319.5 127.4Z" fill="black"/>
<path d="M103.5 194.5C99.8 196.1 85.6 200.6 81.3 201.5C76.9 202.4 73 207.2 73 211.7C73 216 77.5 221 81.5 221C84.2 221 93.8 218.6 97.5 217C98.6 216.5 101.2 215.9 103.2 215.5C105.2 215.2 108.2 214.3 109.7 213.5C111.2 212.7 113.3 212 114.2 212C116.4 212 121 206 121 203.1C121 200.1 118.4 195.3 116.1 194C113.4 192.6 107.1 192.8 103.5 194.5Z" fill="black"/>
<path d="M108.7 303.6C108 304.3 102.7 306.1 88 310.7C83.3 312.1 78 313.9 76.2 314.6C74.4 315.4 71.9 316 70.7 316C69.5 316.1 67.4 316.7 66 317.5C64.6 318.3 62.5 318.9 61.3 319C60.1 319 57.6 319.6 55.8 320.4C50.3 322.6 36.9 327 30.5 328.6C22.4 330.6 20 333 20 339.1C20 343.1 20.4 344.2 23.1 346.4C24.8 347.8 27.1 349 28.2 349C31.1 349 42.3 346 43.5 344.9C44 344.4 45.3 344 46.3 344C48 344 53.3 342.5 60.5 340C61.6 339.6 64.1 338.8 66 338.1C67.9 337.4 72.7 335.9 76.5 334.8C80.4 333.7 87.5 331.4 92.4 329.9C97.3 328.3 102.1 327 103 327C103.9 327 105 326.7 105.4 326.3C106.5 325.2 115.3 322 117.2 322C119.1 322 123 316.2 123 313.2C123 309.4 120.7 305.9 117.2 304.4C113.6 302.9 109.8 302.6 108.7 303.6Z" fill="black"/>
<path d="M222 324.7C220.6 324.9 218.1 325.8 216.3 326.6C214.6 327.4 212.5 328 211.6 328C210.8 328 209.1 328.4 207.8 328.9C206.5 329.4 200.8 331.3 195 333C189.2 334.7 183.6 336.5 182.5 337C181.4 337.4 177.6 338.7 174 339.8C156.3 345.1 149.6 347.1 139.5 350.3C133.5 352.2 124.5 355 119.5 356.5C104.9 361 104.3 361.3 103.6 366.3C102.9 371 103.4 373.5 105.8 376.2C107.7 378.5 115.6 378.6 120.7 376.5C122.6 375.7 125.3 375 126.5 375C127.8 375 130.1 374.3 131.6 373.5C133.2 372.7 135.5 372 136.7 372C137.9 372 139.1 371.6 139.5 371.1C139.8 370.6 141.5 369.9 143.3 369.5C146.9 368.8 148.7 368.2 161.5 364.1C166.5 362.5 173.2 360.5 176.5 359.5C179.8 358.5 183.7 357.1 185.2 356.4C186.6 355.6 188.6 355 189.7 355C190.7 355 196.8 353.2 203.3 351C209.7 348.8 216.1 347 217.4 347C218.8 347 220.1 346.6 220.5 346.1C220.8 345.6 222.5 344.8 224.3 344.5C229.6 343.3 234.7 340.2 235.4 337.8C236.7 332.9 236 329.9 233.1 326.9C230.2 324 228.2 323.6 222 324.7Z" fill="black"/>
<path d="M334.5 345.4C332.3 346.2 323.5 348.9 315 351.5C306.5 354.1 298.6 356.6 297.5 357C296.4 357.4 291.5 359 286.5 360.4C281.6 361.9 273.9 364.3 269.5 365.6C265.1 367 259.8 368.6 257.7 369.1C255.6 369.6 253.2 370.4 252.2 370.9C251.3 371.4 248.5 372.4 246 373C243.5 373.6 240 374.5 238.1 375C230.2 377 227.5 386.1 233 392C235.7 394.9 236.4 395.2 240.2 394.7C242.6 394.4 247.2 393.2 250.5 392C253.8 390.8 258.3 389.4 260.5 389C262.7 388.5 267.7 387.1 271.5 385.7C275.4 384.3 281.4 382.4 285 381.4C288.6 380.5 292 379.4 292.5 379.1C295.1 377.7 303.8 375.1 306.1 375C307.5 375 309.1 374.5 309.7 373.9C310.3 373.3 312.6 372.4 314.7 372C318.1 371.3 320.3 370.6 327.5 368C328.6 367.6 332.2 366.5 335.5 365.6C338.8 364.6 343.4 363.1 345.8 362.3C356.9 358.2 354.6 343.9 342.9 344.1C340.5 344.1 336.7 344.7 334.5 345.4Z" fill="black"/>
<path d="M195.5 388.2C193.9 388.8 190.7 389.9 188.5 390.6C186.2 391.4 183.7 392 182.8 392C181.9 392 179.9 392.7 178.3 393.4C175.7 394.8 168.7 397 152.5 401.6C149.2 402.5 145.1 403.9 143.3 404.6C141.6 405.4 139.7 406 139.2 406C138.6 406 137.2 407.4 136 409C134.2 411.5 133.9 412.9 134.5 415.8C136.2 425.2 141.8 425.8 163.5 418.9C166.8 417.9 172 416.3 175 415.4C178 414.5 181.4 413.4 182.5 412.9C183.6 412.5 186.1 411.8 188 411.4C189.9 411.1 192.1 410.4 193 410C193.8 409.5 197 408.4 200.1 407.5C208 405.2 210.2 402.6 209.8 396C209.6 392.5 209 390.5 208 390C207.2 389.6 205.5 388.8 204.3 388.2C201.7 386.8 199.6 386.8 195.5 388.2Z" fill="black"/>
<path d="M527.1 107.1C543.9 107.7 559.4 108.5 561.5 108.8C568.7 110.1 568.7 110.1 547.6 125.8L538.6 132.5L489.6 132.2C435.9 131.9 423.8 131.5 424.4 129.7C424.8 128.2 438.1 117.8 444.1 114.2C446.6 112.7 452.2 110.3 456.6 108.8C464 106.3 465.8 106 480.6 106C489.4 106 510.3 106.5 527.1 107.1ZM461.8 152.8C485.5 153.2 505.3 153.9 505.7 154.3C506.2 154.7 505.2 156.2 503.6 157.5C500.7 159.9 485.6 170.8 480.3 174.2C478 175.7 475.1 176 459.6 175.9C449.7 175.9 425.4 175.1 405.6 174.2C373.3 172.7 369.6 172.3 369.3 170.8C369.1 169.6 371.8 166.9 377.5 162.3C391.4 151.3 391.9 151.1 406.3 151.7C413.1 151.9 438 152.5 461.8 152.8ZM471.8 196.6C473 196.8 474.3 198 474.6 199.3C475 200.5 477 206.9 479.1 213.5C481.2 220.1 483.9 228.9 485.1 233C486.3 237.1 489.4 247 491.8 255C497 271.8 506.7 303.4 508.6 310C509.3 312.5 512.4 322.3 515.5 331.9C522.2 352.9 522.6 354.6 521 355.5C519.7 356.4 465.8 356.3 444.6 355.4C436.9 355.1 427.2 354.2 423.1 353.3C409.7 350.6 396.1 342.2 399.1 338.5C399.8 337.7 401.2 337 402.2 337C403.2 337 407.7 335.8 412.3 334.4C439.6 325.8 458 307.4 467.3 279.5C470.2 270.6 470.9 248.9 468.6 238.4C465.9 225.9 458.7 211.6 449.9 201.2C448.4 199.4 447.1 197.5 447.1 197C447.1 195.5 464.9 195.2 471.8 196.6Z" fill="#87C338"/>
<path d="M595.826 125.503C601.826 131.103 607.426 141.803 611.626 155.403C616.026 169.903 630.726 217.603 632.326 222.903C638.426 242.403 639.526 249.303 637.926 259.403C636.426 268.303 634.126 273.903 628.326 282.903C622.126 292.503 617.226 296.603 586.426 318.903C547.426 347.103 543.926 349.403 542.126 348.303C541.326 347.803 537.726 337.903 534.226 326.403C530.626 314.803 526.826 302.503 525.726 298.903C522.626 289.003 503.326 226.703 494.526 197.703C492.526 191.203 492.526 190.903 494.326 188.903C497.726 185.103 534.226 159.503 536.226 159.503C538.426 159.403 538.526 159.603 548.826 192.903C550.926 199.803 554.726 211.903 557.126 219.903C559.626 227.903 562.326 236.803 563.226 239.703C564.026 242.603 565.026 245.403 565.326 245.903C565.626 246.403 568.426 244.803 571.426 242.403C574.426 239.903 578.026 237.203 579.426 236.303C583.026 233.903 583.726 236.903 570.526 194.403C559.126 157.603 555.726 145.703 556.226 144.303C556.526 143.603 560.226 140.503 564.526 137.503C568.826 134.403 575.726 129.503 579.826 126.503C583.926 123.503 588.126 121.003 589.126 121.003C590.126 120.903 593.126 123.003 595.826 125.503Z" fill="#BACD70"/>
</svg>
